<?xml version="1.0" standalone="no"?>
<!DOCTYPE svg PUBLIC "-//W3C//DTD SVG 20010904//EN"
 "http://www.w3.org/TR/2001/REC-SVG-20010904/DTD/svg10.dtd">
<svg version="1.0" xmlns="http://www.w3.org/2000/svg"
 width="72.000000pt" height="47.000000pt" viewBox="0 0 72.000000 47.000000"
 preserveAspectRatio="xMidYMid meet">

<g transform="translate(0.000000,47.000000) scale(0.100000,-0.100000)"
fill="#000000" stroke="none">
<path d="M232 318 c-9 -9 3 -27 51 -77 34 -36 67 -67 72 -69 6 -1 41 28 78 66
61 61 66 70 52 82 -14 12 -23 6 -71 -41 l-54 -53 -53 52 c-58 57 -58 57 -75
40z"/>
<path d="M230 214 c-11 -13 -4 -24 51 -80 35 -35 68 -64 74 -64 6 0 41 31 78
68 61 61 66 70 52 82 -14 12 -23 6 -68 -38 -29 -29 -56 -52 -61 -52 -4 0 -28
23 -53 50 -49 55 -54 57 -73 34z"/>
</g>
</svg>
